# Blender 4.5.3 LTS
# www.blender.org
mtllib Plate.mtl
o pressure_plate_up
v 0.437500 -0.437500 0.437500
v 0.437500 -0.437500 0.437500
v 0.437500 -0.437500 0.437500
v -0.437500 -0.437500 0.437500
v -0.437500 -0.437500 0.437500
v -0.437500 -0.437500 0.437500
v -0.437500 -0.500000 0.437500
v -0.437500 -0.500000 0.437500
v -0.437500 -0.500000 0.437500
v 0.437500 -0.500000 0.437500
v 0.437500 -0.500000 0.437500
v 0.437500 -0.500000 0.437500
v 0.437500 -0.437500 -0.437500
v 0.437500 -0.437500 -0.437500
v 0.437500 -0.437500 -0.437500
v -0.437500 -0.437500 -0.437500
v -0.437500 -0.437500 -0.437500
v -0.437500 -0.437500 -0.437500
v -0.437500 -0.500000 -0.437500
v -0.437500 -0.500000 -0.437500
v -0.437500 -0.500000 -0.437500
v 0.437500 -0.500000 -0.437500
v 0.437500 -0.500000 -0.437500
v 0.437500 -0.500000 -0.437500
vn -0.0000 -0.0000 1.0000
vn -0.0000 -0.0000 -1.0000
vn -0.0000 1.0000 -0.0000
vn 1.0000 -0.0000 -0.0000
vn -1.0000 -0.0000 -0.0000
vt 0.937500 0.062500
vt 0.062500 0.062500
vt 0.062500 0.000000
vt 0.937500 0.000000
vt 0.937500 0.937500
vt 0.062500 0.937500
s 0
f 1/1/1 4/2/1 7/3/1
f 1/1/1 7/3/1 10/4/1
f 16/1/2 13/2/2 22/3/2
f 16/1/2 22/3/2 19/4/2
f 5/5/3 2/6/3 14/2/3
f 5/5/3 14/2/3 17/1/3
f 23/5/3 20/6/3 8/2/3
f 23/5/3 8/2/3 11/1/3
f 15/1/4 3/2/4 12/3/4
f 15/1/4 12/3/4 24/4/4
f 6/1/5 18/2/5 21/3/5
f 6/1/5 21/3/5 9/4/5
