# Blender 4.5.0
# www.blender.org
o Cube
v 2.000000 2.000000 -2.000000
v 2.000000 -6.000000 -2.000000
v 2.000000 2.000000 2.000000
v 2.000000 -6.000000 2.000000
v -2.000000 2.000000 -2.000000
v -2.000000 -6.000000 -2.000000
v -2.000000 2.000000 2.000000
v -2.000000 -6.000000 2.000000
vn -0.0000 -1.0000 -0.0000
vn -1.0000 -0.0000 -0.0000
vn -0.0000 -0.0000 1.0000
vn -0.0000 1.0000 -0.0000
vn -0.0000 -0.0000 -1.0000
vn 1.0000 -0.0000 -0.0000
vt 0.125000 0.187500
vt 0.187500 0.187500
vt 0.187500 0.250000
vt 0.125000 0.250000
vt 0.062500 0.125000
vt 0.062500 0.250000
vt -0.000000 0.250000
vt 0.000000 0.125000
vt 0.375000 0.750000
vt 0.625000 0.750000
vt 0.625000 1.000000
vt 0.375000 1.000000
s 0
f 6/1/1 2/2/1 4/3/1 8/4/1
f 8/5/2 7/6/2 5/7/2 6/8/2
f 4/5/3 3/6/3 7/7/3 8/8/3
f 1/9/4 5/10/4 7/11/4 3/12/4
f 6/5/5 5/6/5 1/7/5 2/8/5
f 2/5/6 1/6/6 3/7/6 4/8/6
